<svg width="3655" height="792" viewBox="0 0 3655 792" fill="none" xmlns="http://www.w3.org/2000/svg">
<mask id="mask0_121_1434" style="mask-type:luminance" maskUnits="userSpaceOnUse" x="0" y="0" width="3655" height="792">
<path d="M0 0.000610352H3654.54V791.199H0V0.000610352Z" fill="white"/>
</mask>
<g mask="url(#mask0_121_1434)">
<path d="M704.91 426.497V506.232H767.586C796.884 506.232 814.684 490.285 814.684 466.178C814.684 442.072 795.772 426.497 763.506 426.497H704.91ZM704.91 320.06V394.232H754.234C783.903 394.232 800.592 379.397 800.592 357.888C800.592 334.522 783.532 320.06 754.976 320.06H704.91ZM663.374 287.053H756.088C809.492 287.053 843.242 313.384 843.242 355.662C843.242 379.026 831.374 397.198 809.492 406.47C840.646 415.741 857.334 437.624 857.334 467.29C857.334 512.906 824.327 539.238 768.698 539.238H663.374V287.053Z" fill="#AB5333"/>
<path d="M895.906 341.568H935.587V539.236H895.906V341.568ZM895.906 272.218H935.587V317.092H895.906V272.218Z" fill="#AB5333"/>
<path d="M1141.41 482.125C1141.41 519.583 1107.67 544.059 1059.82 544.059C1011.98 544.059 978.236 521.809 970.818 474.708H1010.5C1014.58 499.557 1033.12 513.277 1060.94 513.277C1087.64 513.277 1101.73 501.411 1101.73 484.723C1101.73 435.397 977.122 476.933 977.122 395.715C977.122 364.933 1001.23 336.377 1051.29 336.377C1095.43 336.377 1128.06 356.775 1134.37 406.1H1094.69C1090.23 378.284 1074.66 367.901 1049.44 367.901C1027.56 367.901 1014.95 378.656 1014.95 393.491C1014.95 443.927 1141.41 401.649 1141.41 482.125Z" fill="#AB5333"/>
<path d="M1209.28 420.933H1310.16C1305.34 387.556 1287.9 369.383 1259.72 369.383C1231.16 369.383 1214.1 387.556 1209.28 420.933ZM1261.57 544.059C1203.35 544.059 1167.74 505.119 1167.74 440.588C1167.74 373.463 1203.35 336.376 1259.72 336.376C1316.83 336.376 1351.32 374.947 1351.32 438.363V448.005H1208.17C1210.39 488.429 1229.31 511.051 1261.57 511.051C1286.79 511.051 1304.59 499.185 1311.27 474.707H1352.8C1342.05 520.695 1307.93 544.059 1261.57 544.059Z" fill="#AB5333"/>
<path d="M1391 341.568H1430.68V370.866C1443.66 347.131 1464.06 336.375 1487.05 336.375C1494.84 336.375 1502.26 338.23 1505.97 341.568V376.428C1500.03 374.574 1492.99 373.832 1484.83 373.832C1447 373.832 1430.68 396.826 1430.68 431.316V539.236H1391V341.568Z" fill="#AB5333"/>
<path d="M1533.04 341.568H1572.73V539.236H1533.04V341.568ZM1533.04 272.218H1572.73V317.092H1533.04V272.218Z" fill="#AB5333"/>
<path d="M1748.14 410.549C1743.32 382.364 1725.15 369.755 1702.15 369.755C1669.15 369.755 1651.35 394.973 1651.35 440.589C1651.35 485.463 1669.89 511.052 1703.27 511.052C1727 511.052 1743.69 498.073 1749.62 472.853H1788.94C1780.41 522.177 1746.29 544.059 1702.53 544.059C1645.41 544.059 1610.92 504.748 1610.92 440.589C1610.92 373.464 1646.15 336.377 1702.15 336.377C1746.29 336.377 1781.15 361.225 1787.82 410.549H1748.14Z" fill="#AB5333"/>
<path d="M1892.03 512.905C1925.04 512.905 1950.26 486.574 1950.26 454.679V445.779C1874.23 446.522 1857.17 463.211 1857.17 485.833C1857.17 502.521 1870.89 512.905 1892.03 512.905ZM1823.79 406.098C1830.1 362.337 1860.14 336.375 1909.46 336.375C1963.24 336.375 1989.94 367.899 1989.94 413.886V491.023C1989.94 514.759 1992.16 528.482 1996.61 539.237H1955.08C1952.11 531.819 1951 521.435 1950.63 510.31C1933.94 533.674 1908.35 544.057 1884.62 544.057C1844.56 544.057 1817.12 525.145 1817.12 487.315C1817.12 460.243 1831.95 440.217 1861.62 430.205C1887.95 421.303 1914.65 419.078 1950.26 418.707V414.257C1950.26 385.33 1936.91 369.754 1906.5 369.754C1880.91 369.754 1867.18 383.846 1863.48 406.098H1823.79Z" fill="#AB5333"/>
<path d="M2215.42 544.059C2152.01 544.059 2112.7 505.86 2112.7 443.185V287.053H2154.23V443.185C2154.23 485.463 2177.23 510.683 2215.42 510.683C2253.99 510.683 2276.62 485.093 2276.62 443.185V287.053H2318.15V443.185C2318.15 505.86 2278.84 544.059 2215.42 544.059Z" fill="#AB5333"/>
<path d="M2366.37 341.568H2406.05V367.899C2419.4 346.76 2440.17 336.375 2465.76 336.375C2506.92 336.375 2532.51 360.482 2532.51 407.211V539.236H2493.2V415.37C2493.2 386.812 2480.59 369.383 2453.52 369.383C2423.85 369.383 2406.05 395.714 2406.05 423.158V539.236H2366.37V341.568Z" fill="#AB5333"/>
<path d="M2705.33 341.569H2744.64V539.237H2705.33V512.536C2692.35 533.675 2671.58 544.059 2646.37 544.059C2605.94 544.059 2580.72 520.323 2580.72 473.596V341.569H2620.4V465.436C2620.4 493.993 2632.27 511.052 2658.6 511.052C2687.53 511.052 2705.33 484.721 2705.33 457.277V341.569Z" fill="#AB5333"/>
<path d="M2823.64 275.185H2904.48V277.04L2879.26 284.457L2836.62 433.172C2820.67 488.431 2845.15 518.1 2896.7 518.1C2940.46 518.1 2963.45 496.96 2977.54 447.636L2994.97 389.04C3019.82 301.888 3009.07 287.795 2980.88 278.524L2976.43 277.04V275.185H3054.31V277.04L3029.84 284.457L2981.99 448.377C2962.71 515.132 2929.33 543.689 2876.67 543.689C2814.74 543.689 2779.5 506.975 2801.76 430.205L2844.03 284.457L2823.64 277.04V275.185Z" fill="#AB5333"/>
<path d="M3050.98 370.125C3042.82 370.125 3033.92 382.735 3020.2 402.019H3016.86C3035.03 376.429 3056.17 346.391 3075.45 346.391C3088.8 346.391 3098.82 360.483 3087.32 399.795L3057.28 501.411H3060.25L3082.5 456.536C3115.14 390.152 3144.06 346.391 3172.25 346.391C3190.05 346.391 3202.66 362.337 3188.94 406.099L3165.94 481.013C3156.3 511.423 3162.61 517.728 3168.17 517.728C3175.96 517.728 3183 506.973 3196.72 488.059H3200.06C3181.89 514.391 3161.12 543.689 3142.95 543.689C3129.97 543.689 3117.36 528.855 3131.82 482.125L3156.3 402.391C3163.72 379.027 3157.78 371.98 3149.63 371.98C3135.16 371.98 3117.73 394.601 3086.21 459.132L3046.53 539.237H3012.78L3054.68 397.199C3060.99 375.688 3056.54 370.125 3050.98 370.125Z" fill="#AB5333"/>
<path d="M3267.19 346.389C3280.54 346.389 3292.04 360.482 3279.06 399.793L3250.87 485.092C3242.71 509.568 3249.02 518.098 3257.55 518.098C3271.64 518.098 3287.59 495.476 3319.11 430.945L3358.79 350.84H3392.54L3354.34 481.012C3345.07 511.422 3350.26 517.727 3356.57 517.727C3363.61 517.727 3371.4 506.973 3385.12 488.058H3388.46C3370.29 514.39 3349.15 543.688 3331.35 543.688C3318.37 543.688 3305.76 528.853 3320.22 481.753L3348.04 388.668H3345.07L3322.82 433.542C3290.18 499.926 3263.85 543.688 3235.67 543.688C3217.49 543.688 3203.77 525.885 3218.61 481.012L3246.05 397.197C3252.73 376.8 3247.91 370.124 3242.71 370.124C3234.18 370.124 3225.28 382.733 3211.93 402.018H3208.59C3226.77 376.429 3247.91 346.389 3267.19 346.389Z" fill="#AB5333"/>
<path d="M412.898 539.307H371.36V401.959C344.887 425.875 307.968 440.737 267.188 440.737V399.2C324.63 399.2 371.36 360.131 371.36 312.109V286.999H412.898V425.448C439.371 401.533 476.288 386.671 517.068 386.671V428.208C459.628 428.208 412.898 467.276 412.898 515.299V539.307Z" fill="#AB5333"/>
</g>
</svg>
